# 3ds Max Wavefront OBJ Exporter v0.99 - (c)2007 guruware
# File Created: 06.02.2021 15:51:03

#
# object border
#

v  0.4119 0.4229 0.0363
v  70.4119 0.4229 0.0363
v  70.4119 0.4229 40.0363
v  0.4119 0.4229 40.0363
v  70.4119 20.4229 0.0363
v  70.4119 20.4229 40.0363
v  60.4119 20.4229 0.0363
v  60.4119 20.4229 40.0363
v  60.4119 30.4229 0.0363
v  60.4119 30.4229 40.0363
v  52.6907 31.2994 0.0363
v  52.6907 31.2994 40.0363
v  46.1647 33.2364 0.0363
v  46.1647 33.2364 40.0363
v  40.8040 36.2794 0.0363
v  40.8040 36.2794 40.0363
v  36.5784 40.4739 0.0363
v  36.5784 40.4739 40.0363
v  33.4579 45.8657 0.0363
v  33.4579 45.8657 40.0363
v  31.4124 52.5001 0.0363
v  31.4124 52.5001 40.0363
v  30.4119 60.4229 0.0363
v  30.4119 60.4229 40.0363
v  20.4119 60.4229 0.0363
v  20.4119 60.4229 40.0363
v  20.4119 70.4229 0.0363
v  20.4119 70.4229 40.0363
v  0.4119 70.4229 0.0363
v  0.4119 70.4229 40.0363
# 30 vertices

vn 0.0000 -1.0000 -0.0000
vn 1.0000 0.0000 -0.0000
vn 0.0000 1.0000 0.0000
vn 0.1128 0.9936 0.0000
vn 0.1994 0.9799 0.0000
vn 0.3916 0.9201 0.0000
vn 0.6044 0.7967 0.0000
vn 0.7919 0.6106 0.0000
vn 0.9164 0.4003 0.0000
vn 0.9775 0.2107 0.0000
vn 0.9921 0.1253 0.0000
vn -1.0000 0.0000 -0.0000
vn 0.0000 0.0000 -1.0000
vn -0.0000 0.0000 -1.0000
vn 0.0000 -0.0000 1.0000
# 15 vertex normals

o border
g border
s 1
f 1//1 2//1 3//1 
f 1//1 3//1 4//1 
s 4
f 2//2 5//2 6//2 
f 2//2 6//2 3//2 
s 2
f 5//3 7//3 8//3 
f 5//3 8//3 6//3 
s 4
f 7//2 9//2 10//2 
f 7//2 10//2 8//2 
s 2
f 9//4 11//5 12//5 
f 9//4 12//5 10//4 
f 11//5 13//6 14//6 
f 11//5 14//6 12//5 
f 13//6 15//7 16//7 
f 13//6 16//7 14//6 
f 15//7 17//8 18//8 
f 15//7 18//8 16//7 
f 17//8 19//9 20//9 
f 17//8 20//9 18//8 
f 19//9 21//10 22//10 
f 19//9 22//10 20//9 
f 21//10 23//11 24//11 
f 21//10 24//11 22//10 
s 4
f 23//3 25//3 26//3 
f 23//3 26//3 24//3 
s 2
f 25//2 27//2 28//2 
f 25//2 28//2 26//2 
s 4
f 27//3 29//3 30//3 
f 27//3 30//3 28//3 
s 2
f 29//12 1//12 4//12 
f 29//12 4//12 30//12 
s 16
f 27//13 1//13 29//13 
f 25//13 1//13 27//13 
f 2//13 7//14 5//13 
f 1//13 7//14 2//13 
f 7//14 11//14 9//14 
f 1//13 11//14 7//14 
f 1//13 13//14 11//14 
f 1//13 15//14 13//14 
f 1//13 17//13 15//14 
f 25//13 17//13 1//13 
f 25//13 19//13 17//13 
f 25//13 21//13 19//13 
f 23//13 21//13 25//13 
f 28//15 30//15 4//15 
f 26//15 28//15 4//15 
f 3//15 6//15 8//15 
f 4//15 3//15 8//15 
f 8//15 10//15 12//15 
f 4//15 8//15 12//15 
f 4//15 12//15 14//15 
f 4//15 14//15 16//15 
f 4//15 16//15 18//15 
f 26//15 4//15 18//15 
f 26//15 18//15 20//15 
f 26//15 20//15 22//15 
f 24//15 26//15 22//15 
# 56 faces

