{"asset":{"version":"2.0","generator":"babylon.js glTF exporter for 3dsmax 2021 v20210401.5"},"scene":0,"scenes":[{"nodes":[0]}],"nodes":[{"mesh":0,"name":"column"}],"meshes":[{"primitives":[{"attributes":{"POSITION":1,"NORMAL":2,"TEXCOORD_0":3},"indices":0,"material":0}],"name":"column"}],"accessors":[{"bufferView":0,"componentType":5123,"count":11352,"type":"SCALAR","name":"accessorIndices"},{"bufferView":1,"componentType":5126,"count":11352,"max":[0.0010922,0.025527,0.0010922],"min":[-0.0010922,-0.000126999992,-0.0010922],"type":"VEC3","name":"accessorPositions"},{"bufferView":1,"byteOffset":136224,"componentType":5126,"count":11352,"type":"VEC3","name":"accessorNormals"},{"bufferView":2,"componentType":5126,"count":11352,"type":"VEC2","name":"accessorUVs"}],"bufferViews":[{"buffer":0,"byteLength":22704,"name":"bufferViewScalar"},{"buffer":0,"byteOffset":22704,"byteLength":272448,"byteStride":12,"name":"bufferViewFloatVec3"},{"buffer":0,"byteOffset":295152,"byteLength":90816,"byteStride":8,"name":"bufferViewFloatVec2"}],"buffers":[{"uri":"column.bin","byteLength":385968}],"materials":[{"pbrMetallicRoughness":{"baseColorFactor":[0.5,0.5,0.5,1.0],"metallicFactor":0.0,"roughnessFactor":0.0},"name":"default"}]}